<?xml version="1.0" encoding="UTF-8" standalone="no"?>
<svg
   viewBox="0 0 16 16"
   version="1.1"
   id="svg20"
   xmlns="http://www.w3.org/2000/svg"
   xmlns:svg="http://www.w3.org/2000/svg">
  <defs
     id="defs24" />
  <path
     d="M 4.9112848,11.456373 H 1.12121 v 3.34022 c 0,0.518569 0.3941677,0.835054 0.7580149,0.835054 h 3.0320599 z m 5.0028984,4.175274 v -4.175274 h -3.941677 v 4.175274 z m 4.8512958,-4.175274 h -3.790075 v 4.175274 h 3.03206 c 0.362331,0 0.758015,-0.316485 0.758015,-0.835054 z m 0,-1.169077 V 5.9450124 H 10.975404 V 10.287296 Z M 1.12121,5.9450124 V 10.287296 H 4.9112848 V 5.9450124 Z m 8.7929732,0 h -3.941677 v 4.3422836 h 3.941677 z M 10.975404,0.60066215 V 4.7759358 h 3.790075 V 1.4357169 c 0,-0.3991562 -0.287288,-0.83505475 -0.758015,-0.83505475 z M 4.9112848,4.7759358 V 0.60066215 H 1.8792249 C 1.4092556,0.60066215 1.12121,1.0340555 1.12121,1.4357169 V 4.7759358 Z M 9.9141832,0.60066215 H 5.9725062 V 4.7759358 h 3.941677 z"
     fill-rule="nonzero"
     id="path2-2"
     style="stroke-width:0.795603;fill:#666666" />
</svg>
