<?xml version="1.0" encoding="UTF-8" standalone="no"?>
<svg
   viewBox="0 0 16 16"
   version="1.1"
   id="svg20"
   xmlns="http://www.w3.org/2000/svg"
   xmlns:svg="http://www.w3.org/2000/svg">
  <defs
     id="defs24" />
  <path
     d="m 7.2398866,5.1650885 c -0.00248,-0.00559 -0.1787587,-0.010552 -0.1489655,-0.048414 l 0.085034,-0.052759 c 0.00807,-0.047793 0.04469,-0.1005517 -0.00434,-0.1886897 l 0.029172,-0.077586 -0.062069,0.018 c 0,0 0.087517,-0.3761379 0.2048275,-0.206069 l -0.049655,0.057724 c 0.075724,0.075724 0.096207,0.2644138 0.1210345,0.3866896 0.071379,0.037241 0.1824827,0.044069 0.054621,0.1086207 0.065793,-0.011172 -0.3482069,0.1775173 -0.4022069,0.099931 -0.040345,-0.047172 0.1787587,-0.078828 0.1725518,-0.097448 z m -0.4437931,-0.09869 c -0.047793,0.048414 0.00186,0.079448 0.050897,0.058345 0.070759,-0.031034 0.1669655,-0.029793 0.1762759,-0.1253793 l 0.04531,-0.056483 -0.06269,-0.083793 c -0.037241,-0.00745 -0.062069,0.039724 -0.085035,0.058966 l -0.040965,0.010552 -0.038483,0.049655 0.00434,0.02731 z M 11.140921,10.756262 10.685955,10.007709 10.236576,9.2715713 C 9.7834728,8.5304678 9.375059,7.8588816 9.0194038,7.2257782 l -0.043448,0.041586 C 8.7425762,7.364192 8.3912659,6.9514333 8.1448521,6.9377782 8.2640245,6.9563988 8.1560245,6.6336402 8.1560245,6.6125368 8.061059,6.4952264 7.45899,6.6255713 7.3007142,6.6466747 7.0034038,6.6857782 6.693059,6.682054 6.4652659,6.8670195 6.3051279,6.9973644 6.3026452,7.2090195 6.1400245,7.3114333 6.0345073,7.3772264 5.919059,7.356123 5.8284383,7.4411575 5.6683004,7.5932264 5.4851969,7.8179161 5.3958176,8.0177782 c -0.038483,0.083793 0.047793,0.2842758 0.02669,0.3922758 -0.2085517,0.6597931 0.052759,1.5753105 0.8534483,1.676483 0.1936552,0.02421 0.396,0.129724 0.5927587,0.07076 0.1564133,-0.04717 0.2942065,-0.153931 0.4624133,-0.1663453 0.2340001,-0.015517 0.1365518,0.3283453 0.4574483,0.2352413 0.1557931,-0.04593 0.2265518,0.106759 0.2265518,0.222828 -0.052138,0.24269 -0.1663449,0.378 0.054621,0.548069 0.1502069,0.11669 0.2743449,0.283035 0.3016552,0.484138 0.016138,0.112966 0.1216552,0.306621 -0.00931,0.373655 -0.092483,0.04655 -0.1607586,0.31469 -0.1595173,0.402828 0.019241,0.102414 0.2265518,0.298552 0.2892414,0.385448 0.090621,0.124138 0.024207,0.270621 0.098069,0.411517 0.075724,0.144 0.1471034,0.254483 0.2004827,0.400345 0.068897,0.201104 0.5946207,-0.0043 0.7175173,-0.0037 0.417724,0.0025 0.6293797,-0.585931 0.9229647,-0.766552 0.165725,-0.102413 0.119173,-0.382344 0.316552,-0.526344 0.183724,-0.133449 0.37738,-0.213518 0.394759,-0.459932 0.01303,-0.213517 -0.160759,-0.659172 -0.06455,-0.839793 z M 6.6092659,5.9397092 c 0.025448,0.1067586 -0.073862,0.4003448 -0.095586,0.4934483 -0.019241,0.085655 0.2743448,0.1402758 0.2575862,0.1831034 0.00248,-0.00497 0.3984827,-0.1365517 0.4375862,-0.1706896 l 0.089379,-0.2004828 c 0.075103,-0.050276 0.153931,-0.090621 0.2383448,-0.1216552 L 7.6383693,5.9465368 c 0.034759,-0.013034 0.4406897,-0.076345 0.4692414,-0.06269 0.1024138,0.046552 0.2911035,0.2414483 0.3618621,0.3295862 l 0.025448,0.019862 C 8.2925762,5.8174333 8.1287142,5.4177092 8.0008521,5.0279161 l -0.051517,0.022345 c -0.1377931,0 -0.3277241,0.1557931 -0.4115172,0.2513793 -0.058966,0.064552 -0.4152417,0.2091722 -0.4543451,0.2048274 0.2048276,0.021724 0.1948965,0.1713104 0.1787586,0.2991724 -0.042207,0.2954483 -0.6802759,0.021724 -0.6529655,0.134069 z m 6.7680001,3.1338621 c -0.171931,2.9836557 -2.639793,5.3522077 -5.6668967,5.3522077 -1.6156552,0 -3.0730345,-0.674069 -4.1077241,-1.756552 -0.1228966,-0.129103 -0.2147587,-0.434483 -0.012414,-0.558621 l 0.2054483,-0.05276 C 3.9564383,11.921296 3.6454728,11.368262 3.7683693,11.279503 4.1513348,11.005779 3.9694728,10.669986 3.7342314,10.392537 3.6343003,10.274606 3.0868522,9.7097783 3.0247832,9.8109507 3.0707143,9.656399 2.9254729,9.2833644 2.8373349,9.1362609 2.6889901,8.8892264 2.4940936,8.7371575 2.4158867,8.4652954 2.3848522,8.3572954 2.3848522,8.0283299 2.3209212,7.9526058 2.2954729,7.9215713 2.0987143,7.8377782 2.1055418,7.7930885 2.2948522,6.6634333 2.8174729,5.6467437 3.5728521,4.8441919 L 4.0824383,4.6393644 C 4.4020935,4.1595712 4.4207141,4.531985 4.7080935,4.4066057 c 0.095586,0 0.2054482,-0.3935172 0.307862,-0.4555862 C 5.1953348,3.8361919 5.0581624,3.8361919 5.0252659,3.7834333 4.9557486,3.6692264 6.5217486,3.0988126 6.5478176,3.2012264 6.568921,3.288123 5.7725762,3.7033643 5.8600935,3.6903299 5.6577486,3.7170195 5.6192659,4.0795023 5.6565073,4.0782609 5.7576797,4.0751575 6.3901624,3.5978471 6.68499,3.6996402 6.9742314,3.7995712 7.4925073,3.469985 7.6948521,3.3023988 l 0.024828,-0.023586 c 0.018,-0.4723448 0.1210345,-0.9273103 0.2985517,-1.3481379 l -0.306,-0.016138 c -3.7706897,0 -6.82758608,3.0568965 -6.82758608,6.8275862 0,3.7706899 3.05689638,6.8275869 6.82758608,6.8275869 3.7700682,0 6.8275852,-3.056897 6.8275852,-6.8275869 0,-0.4742069 -0.04841,-0.9366207 -0.140896,-1.3835173 -0.304759,0.5362759 -0.648,1.104207 -1.021655,1.7149655 z m 1.162551,-5.6482759 c 0,1.5206896 -1.210965,3.3349655 -2.793103,5.9375173 C 10.164576,6.7602609 8.9536107,4.945985 8.9536107,3.4252954 c 0,-1.520069 1.3276553,-2.75213794 2.7931033,-2.75213794 1.465448,0 2.793103,1.23206894 2.793103,2.75213794 z m -1.706896,0.040965 c 0,-0.5995862 -0.486621,-1.0862069 -1.086207,-1.0862069 -0.599586,0 -1.086207,0.4866207 -1.086207,1.0862069 0,0.5995862 0.486621,1.0862069 1.086207,1.0862069 0.599586,0 1.086207,-0.4866207 1.086207,-1.0862069 z"
     id="path917"
     style="display:inline;fill:#666666;fill-opacity:1;stroke-width:0.62069" />
</svg>
