<?xml version="1.0" encoding="UTF-8" standalone="no"?>
<svg
   viewBox="0 0 64 64"
   version="1.1"
   id="svg846"
   xmlns="http://www.w3.org/2000/svg"
   xmlns:svg="http://www.w3.org/2000/svg">
  <defs
     id="defs850" />
  <path
     fill="#0087D0"
     d="M0 0h64v64H0z"
     id="path838"
     style="fill:#e95c1c;fill-opacity:1" />
  <path
     d="M 23.018612,40.260218 H 11.891875 v 8.300221 c 0,1.288609 1.157181,2.075053 2.225347,2.075053 h 8.90139 z M 37.705901,50.635492 V 40.260218 H 26.134098 V 50.635492 Z M 51.948124,40.260218 H 40.821387 v 10.375274 h 8.90139 c 1.063715,0 2.225347,-0.786444 2.225347,-2.075053 z m 0,-2.905079 V 26.564858 H 40.821387 V 37.355139 Z M 11.891875,26.564858 V 37.355139 H 23.018612 V 26.564858 Z m 25.814026,0 H 26.134098 v 10.790281 h 11.571803 z m 3.115486,-13.280351 v 10.375274 h 11.126737 v -8.300219 c 0,-0.991876 -0.843407,-2.075055 -2.225347,-2.075055 z M 23.018612,23.659781 V 13.284507 h -8.90139 c -1.379715,0 -2.225347,1.076954 -2.225347,2.075055 v 8.300219 z M 37.705901,13.284507 H 26.134098 v 10.375274 h 11.571803 z"
     fill-rule="nonzero"
     id="path2-2"
     style="fill:#ffffff;stroke-width:2.14889" />
</svg>
